<?xml version="1.0" encoding="utf-8" ?>
<svg xmlns="http://www.w3.org/2000/svg" xmlns:xlink="http://www.w3.org/1999/xlink" width="256" height="256">
	<path fill="#393E41" transform="scale(0.5 0.5)" d="M40.5487 12.3486L463.96 12.345C469.693 12.3451 475.556 12.0356 481.25 12.7238L482.875 12.9581C495.761 15.4899 504.67 23.9144 508.968 35.9892C510.401 40.0148 509.976 43.857 509.977 48.0826L509.978 362.604C509.976 365.855 510.391 369.781 509.683 372.957C507.713 381.787 501.253 389.721 493.75 394.515C485.569 399.741 476.854 399.68 467.595 399.69L329.762 399.673C326.565 399.653 323.172 399.752 320.01 399.268L316.337 398.941L322.606 427.692L327.612 454.311C329.312 455.013 331.881 455.119 333.729 455.601C345.423 458.655 356.711 468.118 361.221 479.358C364.838 488.372 364.959 496.342 352.933 496.426L168.962 496.483C165.382 496.487 156.476 497.545 153.538 495.892L153.25 495.72C144.4 490.576 150.252 479.747 154.218 473.196C161.831 460.62 171.338 457.644 184.166 454.53L193.682 405.028C193.992 403.404 194.067 401.683 194.545 400.107L194.617 399.879C189.878 399.503 184.971 399.736 180.212 399.732L46.5427 399.725C40.9398 399.723 35.1061 400.005 29.5579 399.142C16.8873 397.17 4.85346 385.583 2.63968 373.021C1.37238 365.829 2.0132 357.795 2.01207 350.495L2.00809 53.694C2.01567 40.0045 2.45423 28.2598 15.3439 19.0509L15.7527 18.7621C23.3713 13.2956 31.4596 12.5222 40.5487 12.3486Z"/>
	<path fill="#9B9B96" transform="scale(0.5 0.5)" d="M84.0452 62.8805C84.234 63.8045 83.8734 66.1335 85.1401 65.787C89.4547 64.6068 95.0141 68.3699 97.3275 71.8114C93.9768 71.0684 89.9217 70.2645 86.8258 68.7383C83.881 67.2867 84.6824 66.3458 81.1197 66.2469L83.75 65.7523C84.2512 65.0688 84.0388 63.7419 84.0452 62.8805Z"/>
	<path fill="#AE7D40" transform="scale(0.5 0.5)" d="M103.68 53.0271C108.292 53.1786 111.566 56.4293 113.714 60.3145L113.088 61.7393C112.296 63.5081 110.258 64.4336 108.569 65.1304C102.384 66.948 94.0023 55.7251 103.68 53.0271Z"/>
	<path fill="#F6F7EB" transform="scale(0.5 0.5)" d="M81.1197 66.2469C76.3418 66.7875 64.0462 66.8167 65.5254 58.9703C66.4584 54.0211 75.2056 53.3143 78.9116 53.9485C81.8385 55.982 83.0206 59.6227 84.0452 62.8805C84.0388 63.7419 84.2512 65.0688 83.75 65.7523L81.1197 66.2469Z"/>
	<path fill="#E94F37" transform="scale(0.5 0.5)" d="M320.876 56.2511L471.133 56.3498L471.156 71.6362L365.388 70.8998L215.213 72.3749L215.075 56.4L320.876 56.2511Z"/>
	<path fill="#F6F7EB" transform="scale(0.5 0.5)" d="M40.1776 88.5045L472.548 88.7619L472.662 328.375C471.397 329.405 383.235 329.011 373.978 329.01L49.6731 329.023C46.6342 329.022 43.2616 329.344 40.2722 328.931L40.1776 88.5045Z"/>
	<path fill="#393E41" transform="scale(0.5 0.5)" d="M98.9582 286.833L288.206 286.991C295.167 286.989 302.285 286.63 309.228 286.973C317.302 287.371 319.087 302.235 308.786 303.723L119.222 303.929C112.826 303.93 106.193 304.289 99.8293 303.841C89.1333 303.086 89.3185 288.414 98.9582 286.833Z"/>
	<path fill="#393E41" transform="scale(0.5 0.5)" d="M99.9201 238.329L301.021 238.297C303.724 238.298 306.504 238.163 309.2 238.371C318.15 239.059 317.634 255.197 307.862 255.544L99.5544 255.346C88.6511 254.898 89.2731 239.993 99.9201 238.329Z"/>
	<path fill="#393E41" transform="scale(0.5 0.5)" d="M346.113 238.315L408.045 238.289C414.508 238.29 419.879 237.12 422.636 245.253C423.345 247.346 422.884 250.896 422.888 253.166L423.037 296.254C423.017 297.005 422.95 297.644 422.567 298.302L421.725 299.669C420.042 302.142 418.151 303.636 415.217 304.218L349.182 304.006C347.423 304.035 344.719 304.479 343.132 303.873L342.578 303.649C338.15 301.804 337.76 297.516 337.77 293.448L337.714 248.415C337.715 247.139 337.539 245.417 338.087 244.243L338.208 244C339.771 240.555 342.361 238.905 346.113 238.315Z"/>
	<path fill="#FFC83C" transform="scale(0.5 0.5)" d="M403.812 255.002L406.438 254.962L406.094 286.954L354.256 287.155L354.259 280.279C364.88 280.305 375.511 280.147 385.5 276.047C395.847 271.8 398.278 263.936 403.812 255.002Z"/>
	<path fill="#FFFA7E" transform="scale(0.5 0.5)" d="M354.257 280.286L354.253 255.221L403.812 255.288C398.278 263.936 395.847 271.8 385.5 276.047C375.511 280.147 364.88 280.305 354.257 280.286Z"/>
	<path fill="#393E41" transform="scale(0.5 0.5)" d="M95.7905 127.049L416.055 127.135C421.202 127.303 423.893 131.714 423.943 136.298L423.972 185.849C423.97 193.312 426.268 204.911 416.965 207.699C413.577 208.368 409.759 208.065 406.323 208.059L101.3 208.046C99.307 208.051 97.006 208.272 95.0631 207.848L94.75 207.774C86.4429 205.863 88.306 196.572 88.3104 190.266L88.3159 147.357C88.3175 143.365 88.0711 139.178 88.5358 135.217L88.5929 134.75C88.6881 133.936 88.7915 133.295 89.1546 132.554L89.3058 132.25C90.7624 129.183 92.5163 127.717 95.7905 127.049Z"/>
	<path fill="#E94F37" transform="scale(0.5 0.5)" d="M203.514 143.743L407.222 143.851L407.523 190.79L308.025 190.778L105.127 190.673L105.069 143.85L203.514 143.743Z"/>
</svg>
